<svg xmlns="http://www.w3.org/2000/svg" viewBox="0 0 740 400" font-family="monospace" font-size="12">
  <defs>
    <marker id="arr" viewBox="0 0 10 10" refX="9" refY="5"
            markerWidth="6" markerHeight="6" orient="auto-start-reverse">
      <path d="M 0 0 L 10 5 L 0 10 z" fill="#333" />
    </marker>
    <marker id="arr-g" viewBox="0 0 10 10" refX="9" refY="5"
            markerWidth="6" markerHeight="6" orient="auto-start-reverse">
      <path d="M 0 0 L 10 5 L 0 10 z" fill="#999" />
    </marker>
  </defs>

  <!-- ===== CONSUMER (top left) ===== -->
  <text x="15" y="35" font-size="9" fill="#999">consumer</text>
  <text x="15" y="48" font-size="9" fill="#999">(NTF router /</text>
  <text x="15" y="61" font-size="9" fill="#999"> SMP proxy /</text>
  <text x="15" y="74" font-size="9" fill="#999"> application)</text>

  <!-- ===== agentQ (upper right) ===== -->
  <rect x="360" y="15" width="210" height="35" rx="4"
        fill="#fef7e0" stroke="#f9ab00" />
  <text x="465" y="33" text-anchor="middle" font-weight="bold">agentQ</text>
  <text x="465" y="46" text-anchor="middle" font-size="10">(TBQueue SMPClientAgentEvent)</text>

  <!-- consumer <- agentQ -->
  <line x1="360" y1="32" x2="80" y2="32"
        stroke="#999" marker-end="url(#arr-g)" />

  <!-- agentQ events note -->
  <text x="580" y="22" font-size="9" fill="#666">CAConnected / Disconnected</text>
  <text x="580" y="33" font-size="9" fill="#666">CASubscribed / SubError</text>
  <text x="580" y="44" font-size="9" fill="#666">CAServiceDisconnected</text>
  <text x="580" y="55" font-size="9" fill="#666">CAServiceSubscribed / SubError</text>
  <text x="580" y="66" font-size="9" fill="#666">CAServiceUnavailable</text>

  <!-- ===== msgQ (upper left, below agentQ) ===== -->
  <rect x="130" y="55" width="195" height="35" rx="4"
        fill="#fef7e0" stroke="#f9ab00" />
  <text x="227" y="73" text-anchor="middle" font-weight="bold">msgQ</text>
  <text x="227" y="86" text-anchor="middle" font-size="10">(TBQueue, server messages)</text>

  <!-- consumer <- msgQ -->
  <line x1="130" y1="72" x2="80" y2="72"
        stroke="#999" marker-end="url(#arr-g)" />

  <!-- ===== AGENT CORE ===== -->
  <rect x="25" y="100" width="700" height="82" rx="6"
        fill="none" stroke="#888" stroke-dasharray="6,3" />
  <text x="35" y="113" fill="#888" font-size="10">SMPClientAgent (connection manager)</text>

  <!-- smpClients -->
  <rect x="45" y="120" width="170" height="48" rx="4"
        fill="#fef7e0" stroke="#f9ab00" />
  <text x="130" y="141" text-anchor="middle" font-weight="bold">smpClients</text>
  <text x="130" y="159" text-anchor="middle" font-size="9">(TMap SMPServer SMPClientVar)</text>

  <!-- smpClients -> msgQ (server messages forwarded up) -->
  <line x1="145" y1="120" x2="145" y2="92"
        stroke="#333" marker-end="url(#arr)" />

  <!-- smpSubWorkers -->
  <rect x="250" y="120" width="130" height="48" rx="4"
        fill="#e6f4ea" stroke="#34a853" />
  <text x="315" y="141" text-anchor="middle" font-size="11">smpSubWorkers</text>
  <text x="315" y="159" text-anchor="middle" font-size="9" fill="#666">(one per server)</text>

  <!-- workers -> smpClients (reconnect, dashed) -->
  <line x1="250" y1="144" x2="215" y2="144"
        stroke="#555" stroke-dasharray="3,2" marker-end="url(#arr)" />
  <text x="222" y="138" font-size="8" fill="#555">reconnect</text>

  <!-- subscription tracking -->
  <rect x="415" y="118" width="275" height="56" rx="4"
        fill="#fef7e0" stroke="#f9ab00" />
  <text x="552" y="134" text-anchor="middle" font-size="10">activeQueueSubs / pendingQueueSubs</text>
  <text x="552" y="146" text-anchor="middle" font-size="9" fill="#666">(TMap SMPServer (TMap QueueId ...))</text>
  <text x="552" y="159" text-anchor="middle" font-size="10">activeServiceSubs / pendingServiceSubs</text>
  <text x="552" y="171" text-anchor="middle" font-size="9" fill="#666">(TMap SMPServer (TVar (Maybe ...)))</text>

  <!-- subscription state -> agentQ (connection events forwarded up) -->
  <line x1="465" y1="118" x2="465" y2="52"
        stroke="#333" marker-end="url(#arr)" />

  <!-- ===== PROTOCOL CLIENTS (bottom) ===== -->
  <rect x="25" y="198" width="700" height="72" rx="6"
        fill="none" stroke="#888" stroke-dasharray="6,3" />
  <text x="35" y="213" fill="#888" font-size="10">ProtocolClient connections (one per SMP Router)</text>

  <!-- Client 1 -->
  <rect x="45" y="220" width="140" height="40" rx="4"
        fill="#e8f0fe" stroke="#4285f4" />
  <text x="115" y="238" text-anchor="middle">ProtocolClient</text>
  <text x="115" y="253" text-anchor="middle" font-size="10">→ SMP Router A</text>

  <!-- Client 2 -->
  <rect x="210" y="220" width="140" height="40" rx="4"
        fill="#e8f0fe" stroke="#4285f4" />
  <text x="280" y="238" text-anchor="middle">ProtocolClient</text>
  <text x="280" y="253" text-anchor="middle" font-size="10">→ SMP Router B</text>

  <!-- Client N -->
  <rect x="375" y="220" width="140" height="40" rx="4"
        fill="#e8f0fe" stroke="#4285f4" />
  <text x="445" y="238" text-anchor="middle">ProtocolClient</text>
  <text x="445" y="253" text-anchor="middle" font-size="10">→ SMP Router N</text>

  <!-- dots -->
  <text x="530" y="245" font-size="14" fill="#888">...</text>

  <!-- smpClients -> clients -->
  <line x1="100" y1="168" x2="100" y2="218"
        stroke="#333" marker-end="url(#arr)" />
  <line x1="185" y1="168" x2="265" y2="218"
        stroke="#333" marker-end="url(#arr)" />

  <!-- ===== NOTES ===== -->
  <text x="45" y="292" font-size="10" fill="#666">getSMPServerClient'': get or create client</text>
  <text x="45" y="306" font-size="10" fill="#666">connectClient: create ProtocolClient, register disconnect handler</text>
  <text x="45" y="320" font-size="10" fill="#666">on disconnect: filter by SessionId, move active to pending, notify agentQ, spawn worker</text>
  <text x="45" y="334" font-size="10" fill="#666">worker: retry connect with backoff, resubscribe pending subs</text>
  <text x="45" y="348" font-size="10" fill="#666">subscribeQueuesNtfs / subscribeServiceNtfs: subscribe + track state</text>

  <!-- ===== LEGEND ===== -->
  <rect x="25" y="365" width="700" height="30" rx="4"
        fill="none" stroke="#ddd" />

  <rect x="40" y="374" width="14" height="11" rx="2"
        fill="#e8f0fe" stroke="#4285f4" />
  <text x="60" y="384" font-size="10">ProtocolClient</text>

  <rect x="185" y="374" width="14" height="11" rx="2"
        fill="#fef7e0" stroke="#f9ab00" />
  <text x="205" y="384" font-size="10">state / queue</text>

  <rect x="310" y="374" width="14" height="11" rx="2"
        fill="#e6f4ea" stroke="#34a853" />
  <text x="330" y="384" font-size="10">background worker</text>

  <text x="480" y="384" font-size="10" fill="#666">
    Solid arrows: TBQueue flow.  Dashed: reconnection.
  </text>

</svg>
