<svg xmlns="http://www.w3.org/2000/svg" viewBox="0 0 640 380" font-family="monospace" font-size="12">
  <defs>
    <marker id="arr" viewBox="0 0 10 10" refX="9" refY="5"
            markerWidth="6" markerHeight="6" orient="auto-start-reverse">
      <path d="M 0 0 L 10 5 L 0 10 z" fill="#333" />
    </marker>
    <marker id="arr-g" viewBox="0 0 10 10" refX="9" refY="5"
            markerWidth="6" markerHeight="6" orient="auto-start-reverse">
      <path d="M 0 0 L 10 5 L 0 10 z" fill="#999" />
    </marker>
  </defs>

  <!-- ===== PER-CONNECTION GROUP ===== -->
  <rect x="100" y="15" width="435" height="250" rx="6"
        fill="none" stroke="#888" stroke-dasharray="6,3" />
  <text x="110" y="30" fill="#888" font-size="10">per connection (raceAny_: any exit tears down all threads)</text>

  <!-- ===== MONITOR (optional, above sndQ area) ===== -->
  <rect x="275" y="38" width="88" height="24" rx="4"
        fill="#f5f5f5" stroke="#bbb" />
  <text x="319" y="55" text-anchor="middle" font-size="11">monitor</text>
  <text x="370" y="54" font-size="9" fill="#bbb">optional</text>

  <!-- monitor -> API (PING via sendProtocolCommand) -->
  <line x1="300" y1="62" x2="265" y2="74"
        stroke="#555" stroke-dasharray="3,2" marker-end="url(#arr)" />
  <text x="305" y="73" font-size="9" fill="#555">PING</text>

  <!-- ===== ROW 1: SEND PATH ===== -->

  <!-- caller label -->
  <text x="15" y="92" font-size="9" fill="#999">caller</text>
  <text x="10" y="105" font-size="9" fill="#999">(Agent /</text>
  <text x="10" y="118" font-size="9" fill="#999"> router)</text>

  <!-- caller -> API -->
  <line x1="55" y1="98" x2="143" y2="98"
        stroke="#999" marker-end="url(#arr-g)" />

  <!-- API functions block -->
  <rect x="145" y="76" width="165" height="42" rx="4"
        fill="#f4f4f4" stroke="#999" />
  <text x="227" y="93" text-anchor="middle" font-size="10">sendProtocolCommand</text>
  <text x="227" y="107" text-anchor="middle" font-size="10">mkTransmission</text>

  <!-- API -> sndQ -->
  <line x1="310" y1="97" x2="335" y2="97"
        stroke="#333" marker-end="url(#arr)" />

  <!-- sndQ -->
  <rect x="337" y="82" width="88" height="34" rx="4"
        fill="#fef7e0" stroke="#f9ab00" />
  <text x="381" y="98" text-anchor="middle" font-weight="bold">sndQ</text>
  <text x="381" y="111" text-anchor="middle" font-size="9">(TBQueue, 64)</text>

  <!-- sndQ -> send -->
  <line x1="425" y1="97" x2="448" y2="97"
        stroke="#333" marker-end="url(#arr)" />

  <!-- send thread -->
  <rect x="450" y="84" width="60" height="28" rx="4"
        fill="#e8f0fe" stroke="#4285f4" />
  <text x="480" y="103" text-anchor="middle">send</text>

  <!-- send -> Router (exits per-connection box) -->
  <line x1="510" y1="97" x2="543" y2="97"
        stroke="#999" marker-end="url(#arr-g)" />

  <!-- Router label (outside box) -->
  <text x="548" y="88" font-size="9" fill="#999">SMP</text>
  <text x="548" y="101" font-size="9" fill="#999">Router</text>
  <text x="548" y="114" font-size="9" fill="#999">(TLS)</text>

  <!-- ===== ROW 2: RECEIVE PATH + SENTCOMMANDS ===== -->

  <!-- API -> sentCommands (insert CorrId + Request) -->
  <line x1="227" y1="118" x2="227" y2="148"
        stroke="#333" marker-end="url(#arr)" />
  <text x="235" y="138" font-size="9" fill="#555">insert</text>

  <!-- sentCommands -->
  <rect x="145" y="150" width="165" height="38" rx="4"
        fill="#fef7e0" stroke="#f9ab00" />
  <text x="227" y="167" text-anchor="middle" font-weight="bold">sentCommands</text>
  <text x="227" y="182" text-anchor="middle" font-size="9">(TMap CorrId Request)</text>

  <!-- sentCommands -> caller (responseVar, dashed) -->
  <line x1="145" y1="169" x2="55" y2="125"
        stroke="#555" stroke-dasharray="3,2" marker-end="url(#arr)" />
  <text x="62" y="152" font-size="9" fill="#555">responseVar</text>
  <text x="62" y="164" font-size="9" fill="#555">(TMVar)</text>

  <!-- Router -> receive (enters per-connection box) -->
  <line x1="543" y1="163" x2="510" y2="163"
        stroke="#999" marker-end="url(#arr-g)" />

  <!-- receive thread -->
  <rect x="450" y="150" width="60" height="28" rx="4"
        fill="#e8f0fe" stroke="#4285f4" />
  <text x="480" y="169" text-anchor="middle">receive</text>

  <!-- receive -> rcvQ -->
  <line x1="450" y1="163" x2="425" y2="163"
        stroke="#333" marker-end="url(#arr)" />

  <!-- rcvQ -->
  <rect x="337" y="148" width="88" height="34" rx="4"
        fill="#fef7e0" stroke="#f9ab00" />
  <text x="381" y="164" text-anchor="middle" font-weight="bold">rcvQ</text>
  <text x="381" y="177" text-anchor="middle" font-size="9">(TBQueue, 64)</text>

  <!-- ===== ROW 3: PROCESS ===== -->

  <!-- rcvQ -> process -->
  <line x1="370" y1="182" x2="300" y2="216"
        stroke="#333" marker-end="url(#arr)" />

  <!-- process -> sentCommands (match CorrId, dashed upward) -->
  <line x1="245" y1="218" x2="245" y2="190"
        stroke="#555" stroke-dasharray="3,2" marker-end="url(#arr)" />
  <text x="252" y="208" font-size="9" fill="#555">match</text>

  <!-- process thread -->
  <rect x="195" y="220" width="110" height="28" rx="4"
        fill="#e8f0fe" stroke="#4285f4" />
  <text x="250" y="239" text-anchor="middle">process</text>

  <!-- ===== msgQ (outside per-connection box) ===== -->

  <!-- process -> msgQ -->
  <line x1="250" y1="248" x2="250" y2="278"
        stroke="#333" marker-end="url(#arr)" />
  <text x="258" y="268" font-size="9" fill="#555">events</text>

  <!-- msgQ -->
  <rect x="175" y="280" width="160" height="33" rx="4"
        fill="#fef7e0" stroke="#f9ab00" />
  <text x="255" y="296" text-anchor="middle" font-weight="bold">msgQ (optional)</text>
  <text x="255" y="308" text-anchor="middle" font-size="9">(TBQueue, server events)</text>

  <!-- msgQ -> consumer -->
  <line x1="175" y1="296" x2="55" y2="296"
        stroke="#999" marker-end="url(#arr-g)" />
  <text x="65" y="290" font-size="9" fill="#999">to Agent / SMPClientAgent</text>

  <!-- ===== LEGEND ===== -->
  <rect x="25" y="325" width="590" height="48" rx="4"
        fill="none" stroke="#ddd" />

  <rect x="40" y="337" width="14" height="11" rx="2"
        fill="#e8f0fe" stroke="#4285f4" />
  <text x="60" y="347" font-size="10">thread</text>

  <rect x="130" y="337" width="14" height="11" rx="2"
        fill="#fef7e0" stroke="#f9ab00" />
  <text x="150" y="347" font-size="10">queue / state</text>

  <rect x="270" y="337" width="14" height="11" rx="2"
        fill="#f4f4f4" stroke="#999" />
  <text x="290" y="347" font-size="10">API entry point</text>

  <rect x="410" y="337" width="14" height="11" rx="2"
        fill="#f5f5f5" stroke="#bbb" />
  <text x="430" y="347" font-size="10">optional</text>

  <text x="40" y="365" font-size="10" fill="#666">
    Solid arrows: TBQueue flow.  Dashed: STM lookups / TMVar responses.
  </text>

</svg>
